HIERARCHY
ROOT Hips
{
	OFFSET -0.179506 -22.333345 2.821913
	CHANNELS 6 Xposition Yposition Zposition Zrotation Yrotation Xrotation 
	JOINT LeftUpLeg
	{
		OFFSET 6.951974 -9.140623 -0.681533
		CHANNELS 3 Zrotation Yrotation Xrotation
		JOINT LeftLeg
		{
			OFFSET 3.427654 -37.519855 -0.449580
			CHANNELS 3 Zrotation Yrotation Xrotation
			JOINT LeftFoot
			{
				OFFSET -1.359570 -39.796059 -4.369333
				CHANNELS 3 Zrotation Yrotation Xrotation
				JOINT LeftToe
				{
					OFFSET 2.635814 -5.579078 11.928840
					CHANNELS 3 Zrotation Yrotation Xrotation
					End Site
					{
						OFFSET 0.000000 0.000000 0.000000
					}
				}
			}
		}
	}
	JOINT RightUpLeg
	{
		OFFSET -6.767048 -9.052170 -0.431982
		CHANNELS 3 Zrotation Yrotation Xrotation
		JOINT RightLeg
		{
			OFFSET -3.829005 -38.256897 -0.885003
			CHANNELS 3 Zrotation Yrotation Xrotation
			JOINT RightFoot
			{
				OFFSET 1.577377 -39.841461 -4.231180
				CHANNELS 3 Zrotation Yrotation Xrotation
				JOINT RightToe
				{
					OFFSET -2.537174 -4.814398 12.334795
					CHANNELS 3 Zrotation Yrotation Xrotation
					End Site
					{
						OFFSET 0.000000 0.000000 0.000000
					}
				}
			}
		}
	}
	JOINT Spine
	{
		OFFSET -0.253288 10.896323 -2.669631
		CHANNELS 3 Zrotation Yrotation Xrotation
		JOINT Spine1
		{
			OFFSET 0.548704 13.518043 0.109247
			CHANNELS 3 Zrotation Yrotation Xrotation
			JOINT Spine2
			{
				OFFSET 0.145701 5.292222 2.542457
				CHANNELS 3 Zrotation Yrotation Xrotation
				JOINT Neck
				{
					OFFSET -0.277840 21.387037 -4.285703
					CHANNELS 3 Zrotation Yrotation Xrotation
					JOINT Head
					{
						OFFSET 0.515184 6.496960 5.134897
						CHANNELS 3 Zrotation Yrotation Xrotation
						End Site
						{
							OFFSET 0.000000 0.000000 0.000000
						}
					}
				}
				JOINT LeftShoulder
				{
					OFFSET 7.884473 12.174932 -3.408961
					CHANNELS 3 Zrotation Yrotation Xrotation
					JOINT LeftArm
					{
						OFFSET 9.097692 3.046888 -0.886815
						CHANNELS 3 Zrotation Yrotation Xrotation
						JOINT LeftForeArm
						{
							OFFSET 25.961220 -1.277207 -2.745643
							CHANNELS 3 Zrotation Yrotation Xrotation
							JOINT LeftHand
							{
								OFFSET 24.923361 0.898606 -0.117091
								CHANNELS 3 Zrotation Yrotation Xrotation
								End Site
								{
									OFFSET 0.000000 0.000000 0.000000
								}
							}
						}
					}
				}
				JOINT RightShoulder
				{
					OFFSET -8.175920 11.883285 -3.861528
					CHANNELS 3 Zrotation Yrotation Xrotation
					JOINT RightArm
					{
						OFFSET -9.601238 3.255117 -0.914307
						CHANNELS 3 Zrotation Yrotation Xrotation
						JOINT RightForeArm
						{
							OFFSET -25.374195 -1.332924 -2.140099
							CHANNELS 3 Zrotation Yrotation Xrotation
							JOINT RightHand
							{
								OFFSET -25.529810 0.777228 -0.555919
								CHANNELS 3 Zrotation Yrotation Xrotation
								End Site
								{
									OFFSET 0.000000 0.000000 0.000000
								}
							}
						}
					}
				}
			}
		}
	}
}
MOTION
Frames: 14
Frame Time: 0.033333
12.362679 -36.495426 94.554459 179.838150 0.857088 87.102836 1.879606 3.941794 4.609682 -4.758221 -3.031501 -0.461167 5.874039 7.104698 -13.901599 nan nan nan 1.845911 -2.502910 -0.469561 2.199412 0.780164 6.281381 -1.054441 -2.693216 -14.007770 nan nan nan 1.190724 1.707472 5.707635 1.573066 -2.377467 3.450226 -0.237203 -0.325463 -2.894413 3.451798 4.094572 -4.679367 0.653625 -4.108801 13.278238 -30.360046 -6.354510 8.867392 -56.676192 -6.398650 12.752910 5.970771 -23.748627 15.225858 -17.998312 -10.569933 -2.355811 28.753157 5.680004 7.994335 58.861817 6.391757 11.575808 -13.770170 20.835399 4.682477 20.787929 5.780195 -6.581836 
12.315391 -36.510315 94.536186 179.938404 0.820959 87.153598 1.738452 3.814001 4.525889 -4.615900 -3.120147 -0.457598 5.809143 7.174335 -13.978596 nan nan nan 1.764740 -2.355739 -0.474511 2.247922 0.729293 6.198480 -0.816727 -2.862945 -14.064533 nan nan nan 1.287392 1.580798 5.719600 1.499583 -2.329535 3.247065 -0.298190 -0.371587 -2.701430 3.534554 4.101685 -5.002381 0.490937 -4.130668 13.668070 -30.382748 -6.272930 8.814543 -56.609919 -6.470913 12.829867 5.978700 -23.758832 15.313944 -18.130094 -10.756334 -2.318800 28.731011 5.637912 7.860799 58.889055 6.402965 11.741926 -13.761485 20.788980 4.568531 20.735575 5.898427 -6.789616 
12.257671 -36.523087 94.529747 -179.969081 0.765286 87.172898 1.597010 3.722989 4.473420 -4.570321 -3.167826 -0.400261 5.755344 7.200469 -13.979975 nan nan nan 1.639787 -2.249378 -0.436519 2.294469 0.758834 6.253832 -0.695063 -2.893253 -14.147426 nan nan nan 1.358039 1.457947 5.766746 1.429562 -2.321657 3.076730 -0.361932 -0.376821 -2.556851 3.607958 4.121759 -5.124342 0.396206 -4.106025 13.808529 -30.328022 -6.202976 8.748765 -56.631734 -6.547334 12.855691 5.967948 -23.748045 15.520785 -18.285568 -10.803110 -2.279428 28.617006 5.612574 7.767898 58.987902 6.439353 11.863427 -13.651892 20.769046 4.619620 20.540344 6.034571 -7.010790 
12.259156 -36.512608 94.533569 -179.990796 0.768440 87.171127 1.610890 3.747150 4.483526 -4.610906 -3.137527 -0.379982 5.727351 7.205150 -13.975184 nan nan nan 1.637545 -2.242932 -0.434343 2.299023 0.739183 6.269105 -0.661603 -2.892814 -14.142975 nan nan nan 1.371629 1.459023 5.761222 1.420206 -2.296679 3.067481 -0.364966 -0.373597 -2.540505 3.607250 4.122007 -5.125853 0.388457 -4.095668 13.810405 -30.314637 -6.202272 8.742566 -56.656663 -6.547840 12.839262 5.967224 -23.747200 15.543101 -18.265444 -10.788822 -2.272239 28.584303 5.615608 7.783162 59.027170 6.424042 11.877468 -13.644469 20.824224 4.647227 20.460835 6.016162 -7.054147 
12.312697 -36.473007 94.528976 179.892195 0.816358 87.171281 1.748902 3.857730 4.550075 -4.700508 -3.098611 -0.433588 5.668586 7.254006 -13.967327 nan nan nan 1.745440 -2.230433 -0.456881 2.262323 0.750047 6.262345 -0.620755 -2.931531 -14.096911 nan nan nan 1.332905 1.499430 5.677601 1.439787 -2.227743 3.129723 -0.316153 -0.360655 -2.517542 3.580700 4.113745 -5.135072 0.405534 -4.091580 13.788107 -30.238644 -6.217289 8.757186 -56.729232 -6.487361 12.823544 5.881052 -23.827486 15.537527 -17.856690 -10.742595 -2.392688 28.519204 5.645891 7.827786 59.126147 6.381253 11.916995 -13.662719 20.966009 4.725997 20.204588 5.949403 -6.999318 
12.347815 -36.454033 94.524757 179.858931 0.856497 87.155675 1.849000 3.932867 4.588380 -4.748408 -3.099845 -0.440749 5.632386 7.271946 -13.940299 nan nan nan 1.840538 -2.238481 -0.436724 2.196589 0.863454 6.332528 -0.642466 -2.987592 -14.117672 nan nan nan 1.304295 1.524162 5.658850 1.473399 -2.205902 3.153531 -0.272275 -0.359947 -2.481670 3.573279 4.095162 -5.183167 0.391552 -4.154852 13.841056 -30.196318 -6.233514 8.785418 -56.765004 -6.500922 12.794583 5.804747 -23.898152 15.602585 -17.766697 -10.718608 -2.459242 28.536475 5.649419 7.837537 59.105545 6.359222 11.915623 -13.721451 21.091756 4.835540 20.286760 5.899328 -6.966377 
12.349430 -36.455116 94.519867 179.826841 0.860645 87.179802 1.852764 3.923118 4.576502 -4.753797 -3.096952 -0.446965 5.618345 7.280273 -13.974252 nan nan nan 1.871799 -2.192073 -0.438769 2.145674 0.963140 6.386720 -0.623188 -3.012073 -14.174950 nan nan nan 1.304404 1.556100 5.614881 1.492778 -2.193912 3.189245 -0.267890 -0.357136 -2.483812 3.589611 4.090051 -5.172999 0.374307 -4.213929 13.865449 -30.210734 -6.256526 8.815626 -56.772685 -6.486745 12.775614 5.827792 -24.042963 15.596283 -17.946180 -10.572285 -2.469220 28.568189 5.640820 7.876862 59.055346 6.258524 11.931315 -13.863790 21.414652 4.893340 20.686182 5.750862 -7.115657 
12.338288 -36.447079 94.514824 179.830743 0.823273 87.179060 1.788491 3.905349 4.599488 -4.729422 -3.093279 -0.473847 5.625458 7.264633 -13.966232 nan nan nan 1.847688 -2.142904 -0.388714 2.111758 1.004133 6.337111 -0.603882 -3.055255 -14.130324 nan nan nan 1.301469 1.554383 5.557724 1.480202 -2.192998 3.252955 -0.290334 -0.392100 -2.466118 3.646220 4.079898 -5.200641 0.328440 -4.195157 13.895936 -30.200898 -6.245103 8.812436 -56.749373 -6.491781 12.812644 5.805789 -24.126599 15.589264 -17.888890 -10.589231 -2.448474 28.533587 5.675864 7.865826 59.116373 6.257852 12.025818 -13.865750 21.443834 4.741199 20.629694 5.808284 -7.266973 
12.337219 -36.438305 94.513344 179.813739 0.801936 87.172334 1.744125 3.877641 4.637021 -4.682135 -3.136689 -0.498271 5.656819 7.268728 -13.935444 nan nan nan 1.828701 -2.082524 -0.351309 2.131417 0.993078 6.278106 -0.582178 -3.092686 -14.007007 nan nan nan 1.299307 1.551647 5.550541 1.464058 -2.173780 3.258337 -0.296178 -0.406060 -2.431529 3.625856 4.064502 -5.264692 0.315663 -4.186507 13.899712 -30.166592 -6.249798 8.798866 -56.793141 -6.516307 12.842341 5.830391 -24.109128 15.558576 -17.859155 -10.599159 -2.395890 28.485476 5.696026 7.808681 59.212986 6.295743 12.074468 -13.815531 21.339418 4.628972 20.542478 5.889976 -7.333974 
12.335030 -36.430424 94.516670 179.803624 0.786847 87.158539 1.727565 3.844647 4.659146 -4.678835 -3.139417 -0.490601 5.714775 7.282467 -13.926607 nan nan nan 1.787796 -2.043338 -0.329801 2.202105 0.945927 6.185123 -0.590367 -3.134989 -13.885358 nan nan nan 1.316099 1.560343 5.595876 1.443233 -2.163522 3.247814 -0.307556 -0.412627 -2.452470 3.597542 4.066378 -5.298131 0.363152 -4.163957 13.921834 -30.159086 -6.239746 8.771452 -56.791291 -6.519780 12.837944 5.805645 -24.069435 15.570531 -17.866282 -10.610278 -2.330505 28.530100 5.667405 7.780639 59.202556 6.294560 12.055280 -13.825782 21.342252 4.629901 20.576990 5.870172 -7.232063 
12.314805 -36.429821 94.518875 179.858569 0.768960 87.147063 1.679202 3.786948 4.659984 -4.651084 -3.095337 -0.485595 5.750292 7.271473 -13.937145 nan nan nan 1.728300 -2.018995 -0.303024 2.231288 0.839388 6.105288 -0.525239 -3.143532 -13.952166 nan nan nan 1.371606 1.523892 5.659351 1.421539 -2.195537 3.213345 -0.353646 -0.421327 -2.461752 3.619291 4.092146 -5.385711 0.292888 -4.148103 14.005742 -30.174616 -6.227643 8.733057 -56.730136 -6.494879 12.864386 5.768762 -24.054904 15.621581 -18.035488 -10.727014 -2.202786 28.577998 5.650931 7.717980 59.205941 6.262343 12.079401 -13.920385 21.345219 4.584630 20.596108 5.862893 -7.066720 
12.268193 -36.444763 94.537201 179.993192 0.742446 87.143796 1.584104 3.727764 4.630037 -4.602645 -3.098100 -0.469313 5.782879 7.294202 -13.965226 nan nan nan 1.620669 -2.041519 -0.326450 2.284279 0.790089 6.243733 -0.471694 -3.120206 -14.081913 nan nan nan 1.478163 1.472992 5.740239 1.391066 -2.235125 3.128238 -0.429392 -0.474561 -2.421263 3.666636 4.140130 -5.512395 0.133525 -4.147684 14.064029 -30.218500 -6.234160 8.691300 -56.632260 -6.500410 12.892837 5.737402 -24.055491 15.758734 -18.298798 -10.779797 -2.015070 28.576595 5.637725 7.635276 59.242045 6.224404 12.154154 -13.993679 21.371935 4.545122 20.479893 5.857143 -6.941339 
12.236073 -36.456333 94.555939 -179.906060 0.741342 87.099537 1.535750 3.685768 4.654222 -4.561599 -3.171436 -0.458919 5.738067 7.333678 -13.968624 nan nan nan 1.577496 -2.047521 -0.275812 2.309842 0.748133 6.320389 -0.416148 -3.125635 -14.133065 nan nan nan 1.531982 1.413474 5.878578 1.387742 -2.278775 3.052563 -0.453805 -0.472335 -2.430249 3.669729 4.200983 -5.541879 0.085484 -4.162886 14.074625 -30.214859 -6.235113 8.633635 -56.608135 -6.488797 12.914464 5.660578 -24.021537 15.915224 -18.339502 -10.764281 -1.894923 28.570600 5.628523 7.614086 59.218952 6.173397 12.183274 -13.946751 21.504599 4.651153 20.365297 5.812839 -6.918868 
12.255898 -36.445129 94.551407 -179.921410 0.749893 87.050429 1.568924 3.715327 4.726526 -4.563548 -3.198526 -0.463919 5.717671 7.362584 -14.035826 nan nan nan 1.623977 -2.031934 -0.188764 2.282962 0.761049 6.247545 -0.418227 -3.124995 -14.127845 nan nan nan 1.476711 1.381298 5.943227 1.396928 -2.301499 3.041872 -0.431985 -0.412746 -2.473147 3.673001 4.300856 -5.470028 0.185066 -4.194518 14.137033 -30.128777 -6.206458 8.658259 -56.658981 -6.453443 12.898244 5.654921 -24.077045 16.016610 -18.424448 -10.826968 -1.896594 28.572245 5.622640 7.679389 59.220324 6.183499 12.158159 -13.808898 21.582639 4.806923 20.381102 5.869256 -7.085946 
